<svg xmlns="http://www.w3.org/2000/svg" viewBox="0 0 128 128" role="img" aria-labelledby="title">
  <title id="title">Ballenoil</title>
  <rect width="128" height="128" rx="8" fill="#fff"/>
  <g fill="#12a4dc" transform="translate(64 64)">
    <path d="M0-6C-5-22 2-52 18-55c18-4 29 15 20 31C32-12 20-3 5 9Z"/>
    <path d="M5-8C16-23 44-40 59-27c15 13 5 35-13 41C31 18 17 15 1 8Z" transform="rotate(51.4)"/>
    <path d="M5-8C16-23 44-40 59-27c15 13 5 35-13 41C31 18 17 15 1 8Z" transform="rotate(102.8)"/>
    <path d="M5-8C16-23 44-40 59-27c15 13 5 35-13 41C31 18 17 15 1 8Z" transform="rotate(154.2)"/>
    <path d="M5-8C16-23 44-40 59-27c15 13 5 35-13 41C31 18 17 15 1 8Z" transform="rotate(205.6)"/>
    <path d="M5-8C16-23 44-40 59-27c15 13 5 35-13 41C31 18 17 15 1 8Z" transform="rotate(257)"/>
    <path d="M5-8C16-23 44-40 59-27c15 13 5 35-13 41C31 18 17 15 1 8Z" transform="rotate(308.4)"/>
  </g>
  <circle cx="64" cy="64" r="10" fill="#fff"/>
</svg>
