<?xml version="1.0" encoding="UTF-8" standalone="no"?>
<svg xmlns:dc="http://purl.org/dc/elements/1.1/" xmlns:cc="http://creativecommons.org/ns#" xmlns:rdf="http://www.w3.org/1999/02/22-rdf-syntax-ns#" xmlns:svg="http://www.w3.org/2000/svg" xmlns="http://www.w3.org/2000/svg" xmlns:sodipodi="http://sodipodi.sourceforge.net/DTD/sodipodi-0.dtd" xmlns:inkscape="http://www.inkscape.org/namespaces/inkscape" height="260" viewBox="131.274 0.093 38.75256 61.260269" width="300" id="svg3119" version="1.1">
  <defs id="defs3249" />
  <g id="g3253" transform="matrix(0.54363331,0,0,0.54363331,45.93075,47.436005)">
    <path style="fill:#109a2e" id="path3241" d="m 188.948,-33.357074 c -0.123,-32.396 -27.24,-29.818 -27.24,-29.818 -14.973,0 -19.634,11.044 -19.634,11.044 l -2.087,8.099 -3.681,13.866 5.154,17.547 c 3.927,13.25400047 20.247,12.64100047 20.247,12.64100047 29.819,-0.001 27.241,-33.37900047 27.241,-33.37900047 z m -28.323,25.0330005 c -12.664,0.853 -18.186,-10.3540005 -18.186,-23.4380005 0,-13.083 5.813,-23.491 17.986,-23.491 10.691,0 16.617,10.408 16.617,23.491 0.001,13.084 -5.704,22.7180005 -16.417,23.4380005 z" />
    <path style="fill:#109a2e" id="path3243" d="M 142.319,-0.59407353 H 131.274 V -84.773074 h 11.78 v 34.114 l -4.418,12.148 3.805,27.365 z M 227.862,-62.442074 c 0,0 -16.32,-0.615 -20.248,12.639 l -5.152,17.547 3.682,13.867 2.086,8.099 c 0,0 4.664,11.04300047 19.635,11.04300047 0,0 27.117,2.57800003 27.242,-29.81700047 -0.003,-10e-4 2.571,-33.378 -27.245,-33.378 z m 15.338,31.78 c 0,13.084 -5.926,23.4910005 -16.617,23.4910005 -12.172,0 -17.986,-10.4060005 -17.986,-23.4910005 0,-13.083 5.521,-24.29 18.188,-23.438 10.71,0.723 16.415,10.355 16.415,23.438 z" />
    <path style="fill:#109a2e" id="path3245" d="m 208.473,-61.828074 h -11.045 v 84.178 h 11.781 v -34.114 l -4.417,-12.147 3.802,-27.366 z" />
  </g>
</svg>
