<svg xmlns="http://www.w3.org/2000/svg" viewBox="0 0 128 112" role="img" aria-labelledby="title">
  <title id="title">Cepsa</title>
  <rect width="128" height="112" rx="10" fill="#fff"/>
  <g fill="#f20d0d">
    <path d="M58 48H13c-4 0-5.5-4.7-2.3-7.2l24.8-19.6a14 14 0 0 1 8.7-3h23.2c5.1 0 8.7-1.4 12.7-4.6L101.5 2.5c3.6-2.7 8.5.3 7.6 4.7l-6.9 35.1C100.7 50 94 55.7 85.6 55.7H66.5c-6 0-10.1-3.2-8.5-7.7Z"/>
    <path d="M76.4 48.2H115c4.2 0 5.8 4.8 2.4 7.4L94.2 73.8a14 14 0 0 1-8.6 3H67.2c-5.7 0-9.8 1.5-14 4.7l-24.6 28c-3 2.5-7.6-.2-6.8-4.1l7-35.7c1.5-7.7 8.5-13.2 17.1-13.2h22.6c6.4 0 10.2 3.7 7.9 8.6z"/>
    <path d="M12.3 60.7h44.8c5.8 0 9.8 3.6 8.7 8.6l-5.5 27.8c-.8 4.1-5.8 5.7-9 3L31.5 85.2c-3.5-2.7-5.9-6.7-6.7-11.1l-.5-2.8c-.7-4-2.9-5.9-7-5.9H5c-3.9 0-5.5-4.7-2.4-7.1l4.9-3.8a14 14 0 0 1 8.6-3h41c6 0 10.1 3.2 8.6 7.8z"/>
    <path d="M115.9 51.3H77.4c-6.4 0-10.4-3.9-8.8-9.2l5.6-28c.8-4.1 5.8-5.7 9-3l19.8 15.1a17 17 0 0 1 6.6 10.9l.4 2.1c.8 4.1 3 5.9 7.1 5.9H123c4 0 5.5 4.8 2.3 7.2l-4.8 3.8a14 14 0 0 1-8.6 3z"/>
  </g>
</svg>
