<svg xmlns="http://www.w3.org/2000/svg" viewBox="0 0 128 128" role="img" aria-labelledby="title">
  <title id="title">Galp</title>
  <rect width="128" height="128" rx="8" fill="#eef1f7"/>
  <circle cx="64" cy="64" r="49" fill="#f25a05"/>
  <path fill="#eef1f7" d="M64 21.5 37.5 48a22.6 22.6 0 0 0 0 32L64 106.5a22.6 22.6 0 0 0 32 0L122.5 80a22.6 22.6 0 0 0 0-32L95.8 21.3 72.3 44.8a9.9 9.9 0 0 0 0 14l1.6 1.6a20.5 20.5 0 1 1-29 0l20.7-20.7a13.5 13.5 0 0 0-1.6-18.2z"/>
  <path fill="#f25a05" d="M74.9 57.9a2.4 2.4 0 0 0-3.4 0l-8.3 8.3a2.4 2.4 0 1 0 3.4 3.4l2-2a13.4 13.4 0 1 1-18.9.1 13.4 13.4 0 0 1 0-18.9l24.2-24.2 8.8 8.8a30.1 30.1 0 1 1-42.6 0l16.1-16.1 7.4 7.4a13.6 13.6 0 0 1 0 19.2l-6.9 6.9a8.6 8.6 0 1 0 12.2 0l-1.6-1.6a2.2 2.2 0 0 1 0-3.1z"/>
</svg>
