<svg xmlns="http://www.w3.org/2000/svg" viewBox="0 0 128 100" role="img" aria-labelledby="title">
  <title id="title">Repsol</title>
  <defs>
    <linearGradient id="top" x1="20" x2="104" y1="10" y2="48" gradientUnits="userSpaceOnUse">
      <stop offset="0" stop-color="#ffc247"/>
      <stop offset=".55" stop-color="#f5a42a"/>
      <stop offset="1" stop-color="#f58220"/>
    </linearGradient>
    <linearGradient id="bottom" x1="43" x2="87" y1="85" y2="54" gradientUnits="userSpaceOnUse">
      <stop offset="0" stop-color="#ed1741"/>
      <stop offset="1" stop-color="#a70f24"/>
    </linearGradient>
    <linearGradient id="band" x1="13" x2="118" y1="48" y2="55" gradientUnits="userSpaceOnUse">
      <stop offset="0" stop-color="#dedfe0"/>
      <stop offset=".28" stop-color="#fff"/>
      <stop offset=".72" stop-color="#ededed"/>
      <stop offset="1" stop-color="#9fa1a3"/>
    </linearGradient>
  </defs>
  <rect width="128" height="100" rx="8" fill="#fff"/>
  <path fill="url(#top)" d="M64 8c26.5 0 48 18 48 40 0 1.7-.1 3.4-.4 5-28.7-2.2-68.5-2-96.6 1.4C18.5 28 38.8 8 64 8z"/>
  <path fill="url(#bottom)" d="M16 54c27.9-3.4 67.6-3.6 95.2-1.4C106.8 75.8 87.2 92 64 92 39.7 92 19.6 76.9 16 54z"/>
  <path fill="url(#band)" d="M14 38.8c23.6-4.7 78-5.4 101.8-1.1 7.4 1.3 9.7 13.6 1.7 16.6-24.4 9.3-79.8 9.4-105.6 3.7-8.9-2-7.4-17.3 2.1-19.2z"/>
</svg>
