<svg xmlns="http://www.w3.org/2000/svg" viewBox="0 0 100 100">
  <defs>
    <clipPath id="c"><circle cx="50" cy="50" r="49"/></clipPath>
  </defs>
  <!-- Red background -->
  <circle cx="50" cy="50" r="49" fill="#DD1D21"/>
  <!-- Yellow scallop fan -->
  <path clip-path="url(#c)" fill="#FBB612" d="
    M50,91
    C50,91 8,70 6,46
    C4,24 24,4 50,4
    C76,4 96,24 94,46
    C92,70 50,91 50,91Z
  "/>
  <!-- Red grooves radiating from hinge -->
  <line clip-path="url(#c)" x1="50" y1="91" x2="6" y2="60"  stroke="#DD1D21" stroke-width="5"/>
  <line clip-path="url(#c)" x1="50" y1="91" x2="14" y2="22" stroke="#DD1D21" stroke-width="4"/>
  <line clip-path="url(#c)" x1="50" y1="91" x2="32" y2="5"  stroke="#DD1D21" stroke-width="3.5"/>
  <line clip-path="url(#c)" x1="50" y1="91" x2="50" y2="4"  stroke="#DD1D21" stroke-width="3.5"/>
  <line clip-path="url(#c)" x1="50" y1="91" x2="68" y2="5"  stroke="#DD1D21" stroke-width="3.5"/>
  <line clip-path="url(#c)" x1="50" y1="91" x2="86" y2="22" stroke="#DD1D21" stroke-width="4"/>
  <line clip-path="url(#c)" x1="50" y1="91" x2="94" y2="60" stroke="#DD1D21" stroke-width="5"/>
  <!-- Scallop bumps at top -->
  <path clip-path="url(#c)" fill="none" stroke="#DD1D21" stroke-width="3" d="
    M6,60
    Q 10,20 14,22
    Q 20,8 32,5
    Q 38,2 50,4
    Q 62,2 68,5
    Q 80,8 86,22
    Q 90,20 94,60
  "/>
</svg>
